<svg width="34" height="16" viewBox="0 0 34 16" fill="none" xmlns="http://www.w3.org/2000/svg">
<rect width="4.85714" height="4.85714" transform="matrix(4.37114e-08 1 1 -4.37114e-08 0 1.21289)" fill="white"/>
<rect width="4.85714" height="4.85714" transform="matrix(4.37114e-08 1 1 -4.37114e-08 4.85742 4.45117)" fill="white"/>
<rect width="4.85714" height="4.85714" transform="matrix(4.37114e-08 1 1 -4.37114e-08 9.71484 7.68945)" fill="white"/>
<rect x="14.5723" y="15.7852" width="4.85714" height="4.85714" transform="rotate(-90 14.5723 15.7852)" fill="white"/>
<rect width="4.85714" height="4.85714" transform="matrix(4.37114e-08 1 1 -4.37114e-08 14.5723 10.9277)" fill="white"/>
<rect x="19.4277" y="12.5469" width="4.85714" height="4.85714" transform="rotate(-90 19.4277 12.5469)" fill="white"/>
<rect x="24.2852" y="9.30859" width="4.85714" height="4.85714" transform="rotate(-90 24.2852 9.30859)" fill="white"/>
<rect x="29.1426" y="6.07031" width="4.85714" height="4.85714" transform="rotate(-90 29.1426 6.07031)" fill="white"/>
</svg>
