<svg width="282" height="302" viewBox="0 0 282 302" fill="none" xmlns="http://www.w3.org/2000/svg">
<path fill-rule="evenodd" clip-rule="evenodd" d="M223.755 23.8203L258.728 3.62891L272.188 26.9424V43.9463L244.574 59.8877L264.137 93.7637V110.768L224.869 133.438L230.97 144L254.284 130.539L281.205 177.169L280.771 177.418L281.205 178.169L280.771 178.418L281.205 179.169L280.771 179.418L281.205 180.169L280.771 180.418L281.205 181.169L280.771 181.418L281.205 182.169L280.771 182.418L281.205 183.169L280.771 183.418L281.205 184.169L280.771 184.418L281.205 185.169L280.771 185.418L281.205 186.169L280.771 186.418L281.205 187.169L280.771 187.418L281.205 188.169L280.771 188.418L281.205 189.169L280.771 189.418L281.205 190.169L280.771 190.418L281.205 191.169L280.771 191.418L281.205 192.169L280.771 192.418L281.205 193.169L280.77 193.419L281.205 194.173L257.892 207.633L230.97 161.004L215.014 170.216L234.576 204.091L234.143 204.34L234.576 205.091L234.143 205.34L234.576 206.091L234.143 206.34L234.576 207.091L234.143 207.34L234.576 208.091L234.143 208.34L234.576 209.091L234.143 209.34L234.576 210.091L234.143 210.34L234.576 211.091L234.143 211.34L234.576 212.091L234.143 212.34L234.576 213.091L234.143 213.34L234.576 214.091L234.143 214.34L234.576 215.091L234.143 215.34L234.576 216.091L234.143 216.34L234.576 217.091L234.143 217.34L234.576 218.091L234.143 218.34L234.576 219.091L234.143 219.34L234.576 220.091L234.141 220.341L234.576 221.095L211.262 234.555L184.34 187.925L145.07 210.597L164.632 244.473L164.198 244.722L164.632 245.473L164.198 245.722L164.632 246.473L164.198 246.722L164.632 247.473L164.198 247.722L164.632 248.473L164.198 248.722L164.632 249.473L164.198 249.722L164.632 250.473L164.198 250.722L164.632 251.473L164.198 251.722L164.632 252.473L164.198 252.722L164.632 253.473L164.198 253.722L164.632 254.473L164.198 254.722L164.632 255.473L164.198 255.722L164.632 256.473L164.198 256.722L164.632 257.473L164.198 257.722L164.632 258.473L164.198 258.722L164.632 259.473L164.198 259.722L164.632 260.473L164.196 260.723L164.632 261.477L141.316 274.938L114.396 228.308L98.4404 237.519L118.003 271.394L117.569 271.644L118.003 272.394L117.569 272.644L118.003 273.394L117.569 273.644L118.003 274.394L117.569 274.644L118.003 275.394L117.569 275.644L118.003 276.394L117.569 276.644L118.003 277.394L117.569 277.644L118.003 278.394L117.569 278.644L118.003 279.394L117.569 279.644L118.003 280.394L117.569 280.644L118.003 281.394L117.569 281.644L118.003 282.394L117.569 282.644L118.003 283.394L117.569 283.644L118.003 284.394L117.569 284.644L118.003 285.394L117.569 285.644L118.003 286.394L117.569 286.644L118.003 287.394L117.567 287.645L118.003 288.397L94.6875 301.859L67.7656 255.229L68.2002 254.979L67.7656 254.226L68.1982 253.976L67.7656 253.226L68.1982 252.976L67.7656 252.226L68.1982 251.976L67.7656 251.226L68.1982 250.976L67.7656 250.226L68.1982 249.976L67.7656 249.226L68.1982 248.976L67.7656 248.226L68.1982 247.976L67.7656 247.226L68.1982 246.976L67.7656 246.226L68.1982 245.976L67.7656 245.226L68.1982 244.976L67.7656 244.226L68.1982 243.976L67.7656 243.226L68.1982 242.976L67.7656 242.226L68.1982 241.976L67.7656 241.226L68.1982 240.976L67.7656 240.226L68.1982 239.976L67.7656 239.226L68.1982 238.976L67.7656 238.226L83.7119 229.006L77.6201 218.453L54.3047 231.914L0.460938 138.655L0.895508 138.403L0.460938 137.651L0.893555 137.4L0.460938 136.651L0.893555 136.4L0.460938 135.651L0.893555 135.4L0.460938 134.651L0.893555 134.4L0.460938 133.651L0.893555 133.4L0.460938 132.651L0.893555 132.4L0.460938 131.651L0.893555 131.4L0.460938 130.651L0.893555 130.4L0.460938 129.651L0.893555 129.4L0.460938 128.651L0.893555 128.4L0.460938 127.651L0.893555 127.4L0.460938 126.651L0.893555 126.4L0.460938 125.651L0.893555 125.4L0.460938 124.651L0.893555 124.4L0.460938 123.651L0.893555 123.4L0.460938 122.651L0.893555 122.4L0.460938 121.651L16.4082 112.432L10.3164 101.88L10.751 101.629L10.3164 100.876L10.749 100.625L10.3164 99.876L10.749 99.626L10.3164 98.876L10.749 98.626L10.3164 97.876L10.749 97.625L10.3164 96.876L10.749 96.626L10.3164 95.876L10.749 95.626L10.3164 94.876L10.749 94.626L10.3164 93.876L10.749 93.626L10.3164 92.876L10.749 92.626L10.3164 91.876L10.749 91.626L10.3164 90.876L10.749 90.626L10.3164 89.876L10.749 89.626L10.3164 88.876L10.749 88.626L10.3164 87.876L10.749 87.625L10.3164 86.876L10.749 86.626L10.3164 85.876L10.749 85.626L10.3164 84.876L150.205 4.11133L163.665 27.4248L210.293 0.503906L223.755 23.8203ZM207.801 50.0342L223.755 40.8242L229.847 51.376L213.901 60.5947L207.801 50.0342ZM186.822 138.382L77.6201 201.449L31.1348 120.944L140.35 57.8906L146.442 68.4434L118.839 84.3936L119.271 85.1436L118.839 85.3936L119.271 86.1436L118.839 86.3936L119.271 87.1436L118.839 87.3936L119.271 88.1436L118.839 88.3936L119.271 89.1436L118.839 89.3936L119.271 90.1436L118.839 90.3936L119.271 91.1436L118.839 91.3936L119.271 92.1436L118.839 92.3936L119.271 93.1436L118.839 93.3936L119.271 94.1436L118.839 94.3936L119.271 95.1436L118.839 95.3936L119.271 96.1436L118.839 96.3936L119.271 97.1436L118.839 97.3936L119.271 98.1436L118.839 98.3936L119.271 99.1436L118.839 99.3936L119.271 100.144L118.839 100.394L119.273 101.146L118.839 101.397L132.299 124.711L167.271 104.52L186.822 138.382ZM183.219 78.2969L167.271 87.5156L161.172 76.9551L177.127 67.7441L183.219 78.2969Z" fill="#00C0F3"/>
<path d="M200.44 54.2793L223.754 40.8189L210.292 17.5034L163.664 44.4241L150.204 21.1101L10.3155 101.875L23.7759 125.189L140.349 57.8853L153.81 81.2008L177.126 67.7396L190.586 91.0536L167.27 104.515L194.192 151.144L77.619 218.448L91.0802 241.763L114.394 228.303L141.316 274.932L164.631 261.471L137.71 214.842L184.339 187.92L211.261 234.55L234.575 221.089L207.653 174.46L230.969 160.999L217.508 137.683L264.136 110.762L237.214 64.1329L213.9 77.5933L200.44 54.2793ZM223.754 40.8189L237.214 64.1329L272.187 43.9415L258.726 20.6275L223.754 40.8189ZM118.838 101.392L132.298 124.706L167.27 104.515L153.81 81.2008L118.838 101.392ZM23.7759 125.189L0.460385 138.65L54.3035 231.909L77.619 218.448L23.7759 125.189ZM257.89 207.628L281.204 194.168L254.283 147.538L230.969 160.999L257.89 207.628ZM94.6863 301.854L118.002 288.393L91.0802 241.763L67.7647 255.225L94.6863 301.854Z" fill="#C7C8C3"/>
</svg>
