<svg width="23" height="20" viewBox="0 0 23 20" fill="none" xmlns="http://www.w3.org/2000/svg">
<path d="M5.14062 19.0439H7.71875H10.29V1.04297H7.71191H5.14062V3.61426H7.71191V16.4727L5.14062 16.4736V19.0439Z" fill="white"/>
<path d="M2.57812 16.4736H5.14062L5.14941 13.9023H2.57812V16.4736Z" fill="white"/>
<path d="M0 13.8994L2.57812 13.9023L2.57129 6.18359H0V13.8994Z" fill="white"/>
<path d="M5.14941 6.18848H2.57812V3.61719H5.14941V6.18848Z" fill="white"/>
<path d="M13.7188 13.8554H16.2909V11.2833H13.7188V13.8554Z" fill="white"/>
<path d="M16.2909 11.2833H18.8731V8.71274H16.2909V11.2833Z" fill="white"/>
<path d="M18.8731 8.71274H21.4452V6.14062H18.8731V8.71274Z" fill="white"/>
<path d="M13.7188 8.71274H16.2909V6.14062H13.7188V8.71274Z" fill="white"/>
<path d="M18.8731 13.8554H21.4452V11.2833H18.8731V13.8554Z" fill="white"/>
</svg>
