<svg width="23" height="20" viewBox="0 0 23 20" fill="none" xmlns="http://www.w3.org/2000/svg">
<path d="M5.14062 19.0439H7.71875H10.29V1.04297H7.71191H5.14062V3.61426H7.71191V16.4727L5.14062 16.4736V19.0439Z" fill="white"/>
<path d="M2.57812 16.4736H5.14062L5.14941 13.9023H2.57812V16.4736Z" fill="white"/>
<path d="M0 13.8994L2.57812 13.9023L2.57129 6.18359H0V13.8994Z" fill="white"/>
<path d="M5.14941 6.18848H2.57812V3.61719H5.14941V6.18848Z" fill="white"/>
<path d="M15.4229 11.333H17.1494V8.76172L15.4229 8.75488V6.18359H12.8516V8.75488L14.5781 8.76172V11.3281H12.8516V13.8994H15.4229V11.333Z" fill="white"/>
<path d="M22.2822 13.0439H20.5791V15.6143H18.0078V13.043H19.7109V7.04688L18.0078 7.04004V4.46875H20.5791V7.04004L22.2822 7.04688V13.0439Z" fill="white"/>
</svg>
