<svg width="130" height="58" viewBox="0 0 130 58" fill="none" xmlns="http://www.w3.org/2000/svg">
<g clip-path="url(#clip0_276_1846)">
<path d="M10.5902 20.2713V29.1086H23.8462V20.2713H10.5902Z" fill="white"/>
<path d="M41.5207 20.2713H50.358V11.4339H23.846L23.8462 20.2713L32.6834 20.2713V29.1086L23.8462 29.1086L23.846 46.7833H50.358V29.1086H41.5207V20.2713Z" fill="white"/>
<path d="M50.358 20.2713V29.1086L63.614 29.1086V20.2713L50.358 20.2713Z" fill="white"/>
<path d="M88.0193 25.0266H73.6449V11.5672H87.8479V14.5794H78.4681V16.7906H87.1425V19.8221H78.4681V21.9762H88.0193V25.0266Z" fill="white"/>
<path d="M88.9723 21.004L93.7192 20.8707C93.948 21.9 94.9395 22.4149 96.6933 22.4149C97.4304 22.4149 98.0056 22.2941 98.4187 22.0525C98.8317 21.8115 99.0384 21.4808 99.0384 21.0613C99.0384 20.4893 98.5741 20.108 97.6467 19.9173L94.3485 19.2693C92.7088 18.9389 91.5141 18.4778 90.7645 17.8872C90.0141 17.296 89.6395 16.4416 89.6395 15.3229C89.6395 14.5096 89.8811 13.7853 90.3643 13.1496C91.3936 11.7136 93.4144 10.9955 96.4267 10.9955C98.2568 10.9955 99.6675 11.1736 100.659 11.5291C101.739 11.8979 102.533 12.5333 103.042 13.4357C103.283 13.8805 103.436 14.3763 103.499 14.9227L98.7907 15.1896C98.7016 14.8208 98.5045 14.5384 98.1995 14.3411C97.8944 14.1443 97.6115 14.0299 97.3512 13.9979C97.0907 13.9664 96.7757 13.9501 96.4075 13.9501C94.9968 13.9501 94.2915 14.3064 94.2915 15.0179C94.2915 15.3867 94.4851 15.66 94.8728 15.8376C95.2603 16.0157 95.9941 16.2128 97.0747 16.4288L98.7715 16.7717C99.2032 16.8608 99.496 16.9213 99.6485 16.9528C99.8011 16.9848 100.097 17.0611 100.535 17.1819C100.973 17.3027 101.297 17.4136 101.507 17.5152C101.717 17.6173 101.99 17.7725 102.327 17.9824C102.664 18.1923 102.915 18.4144 103.08 18.6496C103.245 18.8848 103.395 19.1771 103.528 19.5267C103.661 19.8763 103.728 20.2541 103.728 20.6611C103.728 21.6016 103.442 22.4467 102.87 23.1965C101.714 24.6835 99.4259 25.4269 96.0069 25.4269C91.6349 25.4269 89.2899 23.9528 88.9723 21.004Z" fill="white"/>
<path d="M119.018 14.5985H110.649V17.1721H118.331V20.1843H110.649V25.0267H105.825V11.5673H119.018V14.5985Z" fill="white"/>
<path d="M73.6007 32.8701L73.8669 35.5738L73.9581 37.605H74.0701L74.3922 34.2008H75.6042L75.8845 37.605H75.9893L76.1013 35.5738L76.3674 32.8701H77.2781L76.7037 38.4738H75.3239L75.0157 34.9994H74.9106L74.5813 38.4738H73.2015L72.6271 32.8701H73.6007Z" fill="white"/>
<path d="M78.2376 38.4738V32.87H81.7822V33.7948H79.2883V35.2236H81.4318V36.1132H79.2883V37.5492H81.712V38.4738H78.2376Z" fill="white"/>
<path d="M88.7305 36.9746C88.8006 37.1944 88.9171 37.361 89.0809 37.4757C89.2441 37.5901 89.4542 37.6472 89.711 37.6472C89.9913 37.6472 90.2118 37.5805 90.3731 37.4474C90.5342 37.3144 90.6147 37.1266 90.6147 36.8837C90.6147 36.7154 90.5574 36.5754 90.443 36.4634C90.3286 36.3514 90.1686 36.2813 89.9633 36.2533L89.2907 36.1552C88.8006 36.0666 88.4259 35.8821 88.1665 35.6018C87.9073 35.3218 87.7777 34.9504 87.7777 34.488C87.7777 34.1285 87.8585 33.8192 88.0195 33.56C88.1806 33.3008 88.4083 33.1002 88.7025 32.9576C88.9966 32.8152 89.3398 32.744 89.7321 32.744C90.1385 32.744 90.4873 32.8141 90.7793 32.9541C91.071 33.0941 91.2998 33.2949 91.4657 33.5565C91.6313 33.8181 91.7283 34.1354 91.7563 34.509H90.7617C90.7009 34.2429 90.5843 34.041 90.4115 33.9032C90.2387 33.7656 90.0147 33.6965 89.7393 33.6965C89.4494 33.6965 89.2206 33.7642 89.0526 33.8997C88.8846 34.0352 88.8006 34.2245 88.8006 34.4669C88.8006 34.64 88.8587 34.781 88.9755 34.8909C89.0923 35.0005 89.251 35.072 89.4518 35.1045L90.1243 35.2026C90.6193 35.2821 90.9966 35.4642 91.2558 35.749C91.5147 36.0338 91.6443 36.405 91.6443 36.8626C91.6443 37.2221 91.5649 37.5317 91.4062 37.7906C91.2475 38.0498 91.0233 38.2496 90.7339 38.3896C90.4441 38.5298 90.1033 38.5997 89.711 38.5997C89.3142 38.5997 88.9707 38.5354 88.6814 38.4072C88.3918 38.2786 88.1643 38.093 87.9985 37.8504C87.8326 37.6074 87.7358 37.3157 87.7078 36.9746H88.7305Z" fill="white"/>
<path d="M92.6461 38.4738V32.87H93.6968V35.1746H95.4341V32.87H96.4848V38.4738H95.4341V36.1762H93.6968V38.4738H92.6461Z" fill="white"/>
<path d="M99.4684 37.6331C99.8466 37.6331 100.125 37.472 100.305 37.1499C100.485 36.8277 100.575 36.3349 100.575 35.6717C100.575 35.0088 100.485 34.5163 100.305 34.1941C100.125 33.8717 99.8466 33.7107 99.4684 33.7107C99.0903 33.7107 98.8111 33.8717 98.6314 34.1941C98.4514 34.5163 98.3618 35.0088 98.3618 35.6717C98.3618 36.3349 98.4514 36.8277 98.6314 37.1499C98.8111 37.472 99.0903 37.6331 99.4684 37.6331ZM99.4684 38.5997C98.7586 38.5997 98.2218 38.3536 97.8572 37.8608C97.4932 37.368 97.3111 36.6387 97.3111 35.6717C97.3111 34.7053 97.4932 33.9757 97.8572 33.4829C98.2218 32.9904 98.7586 32.744 99.4684 32.744C100.178 32.744 100.715 32.9904 101.079 33.4829C101.444 33.9757 101.626 34.7053 101.626 35.6717C101.626 36.6387 101.444 37.368 101.079 37.8608C100.715 38.3536 100.178 38.5997 99.4684 38.5997Z" fill="white"/>
<path d="M104.372 37.6331C104.75 37.6331 105.029 37.472 105.209 37.1499C105.389 36.8277 105.478 36.3349 105.478 35.6717C105.478 35.0088 105.389 34.5163 105.209 34.1941C105.029 33.8717 104.75 33.7107 104.372 33.7107C103.994 33.7107 103.714 33.8717 103.535 34.1941C103.355 34.5163 103.265 35.0088 103.265 35.6717C103.265 36.3349 103.355 36.8277 103.535 37.1499C103.714 37.472 103.994 37.6331 104.372 37.6331ZM104.372 38.5997C103.662 38.5997 103.125 38.3536 102.761 37.8608C102.397 37.368 102.214 36.6387 102.214 35.6717C102.214 34.7053 102.397 33.9757 102.761 33.4829C103.125 32.9904 103.662 32.744 104.372 32.744C105.081 32.744 105.618 32.9904 105.983 33.4829C106.347 33.9757 106.529 34.7053 106.529 35.6717C106.529 36.6387 106.347 37.368 105.983 37.8608C105.618 38.3536 105.081 38.5997 104.372 38.5997Z" fill="white"/>
<path d="M108.749 38.4738V33.8647H107.138V32.87H111.411V33.8647H109.8V38.4738H108.749Z" fill="white"/>
<path d="M114.178 38.5436C113.921 38.5436 113.724 38.4737 113.586 38.3337C113.448 38.1935 113.379 37.9951 113.379 37.7383C113.379 37.4769 113.448 37.2748 113.586 37.1324C113.724 36.99 113.921 36.9185 114.178 36.9185C114.435 36.9185 114.632 36.99 114.77 37.1324C114.908 37.2748 114.977 37.4743 114.977 37.7313C114.977 37.993 114.908 38.1935 114.77 38.3337C114.632 38.4737 114.435 38.5436 114.178 38.5436Z" fill="white"/>
<path d="M73.6007 41.2755L73.8669 43.9792L73.9581 46.0104H74.0701L74.3922 42.6064H75.6042L75.8845 46.0104H75.9893L76.1013 43.9792L76.3674 41.2755H77.2781L76.7037 46.8792H75.3239L75.0157 43.4048H74.9106L74.5813 46.8792H73.2015L72.6271 41.2755H73.6007Z" fill="white"/>
<path d="M78.2376 46.8791V41.2754H81.7822V42.2002H79.2883V43.629H81.4318V44.5186H79.2883V45.9546H81.712V46.8791H78.2376Z" fill="white"/>
<path d="M88.7305 45.3802C88.8006 45.5997 88.9171 45.7666 89.0809 45.881C89.2441 45.9954 89.4542 46.0525 89.711 46.0525C89.9913 46.0525 90.2118 45.9858 90.3731 45.853C90.5342 45.7199 90.6147 45.5319 90.6147 45.289C90.6147 45.121 90.5574 44.981 90.443 44.8687C90.3286 44.7567 90.1686 44.6866 89.9633 44.6589L89.2907 44.5605C88.8006 44.4719 88.4259 44.2874 88.1665 44.0074C87.9073 43.7271 87.7777 43.3559 87.7777 42.8935C87.7777 42.5341 87.8585 42.2247 88.0195 41.9655C88.1806 41.7063 88.4083 41.5055 88.7025 41.3631C88.9966 41.2207 89.3398 41.1495 89.7321 41.1495C90.1385 41.1495 90.4873 41.2194 90.7793 41.3597C91.071 41.4997 91.2998 41.7005 91.4657 41.9621C91.6313 42.2234 91.7283 42.541 91.7563 42.9146H90.7617C90.7009 42.6482 90.5843 42.4463 90.4115 42.3085C90.2387 42.1709 90.0147 42.1018 89.7393 42.1018C89.4494 42.1018 89.2206 42.1698 89.0526 42.3053C88.8846 42.4407 88.8006 42.6298 88.8006 42.8725C88.8006 43.0453 88.8587 43.1866 88.9755 43.2962C89.0923 43.4061 89.251 43.4773 89.4518 43.5098L90.1243 43.6082C90.6193 43.6874 90.9966 43.8695 91.2558 44.1543C91.5147 44.4391 91.6443 44.8103 91.6443 45.2679C91.6443 45.6277 91.5649 45.937 91.4062 46.1962C91.2475 46.4551 91.0233 46.6549 90.7339 46.7951C90.4441 46.9351 90.1033 47.0053 89.711 47.0053C89.3142 47.0053 88.9707 46.941 88.6814 46.8125C88.3918 46.6842 88.1643 46.4986 87.9985 46.2559C87.8326 46.013 87.7358 45.721 87.7078 45.3802H88.7305Z" fill="white"/>
<path d="M92.6461 46.8791V41.2754H93.6968V43.5799H95.4341V41.2754H96.4848V46.8791H95.4341V44.5818H93.6968V46.8791H92.6461Z" fill="white"/>
<path d="M99.4684 46.0386C99.8466 46.0386 100.125 45.8776 100.305 45.5552C100.485 45.233 100.575 44.7405 100.575 44.0773C100.575 43.4141 100.485 42.9216 100.305 42.5994C100.125 42.2773 99.8466 42.116 99.4684 42.116C99.0903 42.116 98.8111 42.2773 98.6314 42.5994C98.4514 42.9216 98.3618 43.4141 98.3618 44.0773C98.3618 44.7405 98.4514 45.233 98.6314 45.5552C98.8111 45.8776 99.0903 46.0386 99.4684 46.0386ZM99.4684 47.0053C98.7586 47.0053 98.2218 46.7589 97.8572 46.2661C97.4932 45.7736 97.3111 45.044 97.3111 44.0773C97.3111 43.1106 97.4932 42.381 97.8572 41.8885C98.2218 41.3957 98.7586 41.1493 99.4684 41.1493C100.178 41.1493 100.715 41.3957 101.079 41.8885C101.444 42.381 101.626 43.1106 101.626 44.0773C101.626 45.044 101.444 45.7736 101.079 46.2661C100.715 46.7589 100.178 47.0053 99.4684 47.0053Z" fill="white"/>
<path d="M104.477 47.0052C103.785 47.0052 103.263 46.7601 102.908 46.2697C102.553 45.7796 102.375 45.0487 102.375 44.0772C102.375 43.106 102.559 42.3751 102.925 41.8849C103.292 41.3945 103.83 41.1495 104.54 41.1495C104.932 41.1495 105.272 41.2324 105.559 41.398C105.846 41.5639 106.072 41.8044 106.238 42.1196C106.404 42.4345 106.501 42.8188 106.529 43.2719H105.569C105.504 42.8935 105.384 42.6063 105.209 42.4103C105.034 42.2143 104.811 42.1159 104.54 42.1159C104.161 42.1159 103.881 42.2772 103.699 42.5993C103.517 42.9215 103.426 43.4143 103.426 44.0772C103.426 44.7404 103.512 45.2332 103.685 45.5553C103.858 45.8775 104.122 46.0385 104.477 46.0385C104.738 46.0385 104.95 45.9487 105.111 45.7689C105.272 45.5892 105.387 45.3217 105.457 44.9668H106.417C106.389 45.4012 106.295 45.7703 106.133 46.0735C105.972 46.3772 105.75 46.6084 105.468 46.7671C105.185 46.9257 104.855 47.0052 104.477 47.0052Z" fill="white"/>
<path d="M110.164 46.8791L108.7 44.5477L108.462 44.1685L108.7 43.7973L110.318 41.2754H111.467L109.646 44.1263L111.376 46.8791H110.164ZM107.65 41.2754H108.7V43.7973V44.5477V46.8791H107.65V41.2754Z" fill="white"/>
<path fill-rule="evenodd" clip-rule="evenodd" d="M10.5902 29.1086V20.2713H23.8462V29.1086H10.5902ZM50.358 29.1086V46.7833H23.846L23.8462 29.1086L32.6834 29.1086V20.2713L23.8462 20.2713L23.846 11.4339H50.358V20.2713H41.5207V29.1086H50.358ZM50.358 29.1086V20.2713L63.614 20.2713V29.1086L50.358 29.1086ZM73.6449 25.0266H88.0193V21.9762H78.4681V19.8221H87.1425V16.7906H78.4681V14.5794H87.8479V11.5672H73.6449V25.0266ZM93.7192 20.8707L88.9723 21.004C89.2899 23.9528 91.6349 25.4269 96.0069 25.4269C99.4259 25.4269 101.714 24.6835 102.87 23.1965C103.442 22.4467 103.728 21.6016 103.728 20.6611C103.728 20.2541 103.661 19.8763 103.528 19.5267C103.395 19.1771 103.245 18.8848 103.08 18.6496C102.915 18.4144 102.664 18.1923 102.327 17.9824C101.99 17.7725 101.717 17.6173 101.507 17.5152C101.297 17.4136 100.973 17.3027 100.535 17.1819C100.097 17.0611 99.8011 16.9848 99.6485 16.9528L98.7715 16.7717L97.0747 16.4288C95.9941 16.2128 95.2603 16.0157 94.8728 15.8376C94.4851 15.66 94.2915 15.3867 94.2915 15.0179C94.2915 14.3064 94.9968 13.9501 96.4075 13.9501C96.7757 13.9501 97.0907 13.9664 97.3512 13.9979C97.6115 14.0299 97.8944 14.1443 98.1995 14.3411C98.5045 14.5384 98.7016 14.8208 98.7907 15.1896L103.499 14.9227C103.436 14.3763 103.283 13.8805 103.042 13.4357C102.533 12.5333 101.739 11.8979 100.659 11.5291C99.6675 11.1736 98.2568 10.9955 96.4267 10.9955C93.4144 10.9955 91.3936 11.7136 90.3643 13.1496C89.8811 13.7853 89.6395 14.5096 89.6395 15.3229C89.6395 16.4416 90.0141 17.296 90.7645 17.8872C91.5141 18.4778 92.7088 18.9389 94.3485 19.2693L97.6467 19.9173C98.5741 20.108 99.0384 20.4893 99.0384 21.0613C99.0384 21.4808 98.8317 21.8115 98.4187 22.0525C98.0056 22.2941 97.4304 22.4149 96.6933 22.4149C94.9395 22.4149 93.948 21.9 93.7192 20.8707ZM110.649 14.5985H119.018V11.5673H105.825V25.0267H110.649V20.1843H118.331V17.1721H110.649V14.5985ZM73.8669 35.5738L73.6007 32.8701H72.6271L73.2015 38.4738H74.5813L74.9106 34.9994H75.0157L75.3239 38.4738H76.7037L77.2781 32.8701H76.3674L76.1013 35.5738L75.9893 37.605H75.8845L75.6042 34.2008H74.3922L74.0701 37.605H73.9581L73.8669 35.5738ZM78.2376 32.87V38.4738H81.712V37.5492H79.2883V36.1132H81.4318V35.2236H79.2883V33.7948H81.7822V32.87H78.2376ZM89.0809 37.4757C88.9171 37.361 88.8006 37.1944 88.7305 36.9746H87.7078C87.7358 37.3157 87.8326 37.6074 87.9985 37.8504C88.1643 38.093 88.3918 38.2786 88.6814 38.4072C88.9707 38.5354 89.3142 38.5997 89.711 38.5997C90.1033 38.5997 90.4441 38.5298 90.7339 38.3896C91.0233 38.2496 91.2475 38.0498 91.4062 37.7906C91.5649 37.5317 91.6443 37.2221 91.6443 36.8626C91.6443 36.405 91.5147 36.0338 91.2558 35.749C90.9966 35.4642 90.6193 35.2821 90.1243 35.2026L89.4518 35.1045C89.251 35.072 89.0923 35.0005 88.9755 34.8909C88.8587 34.781 88.8006 34.64 88.8006 34.4669C88.8006 34.2245 88.8846 34.0352 89.0526 33.8997C89.2206 33.7642 89.4494 33.6965 89.7393 33.6965C90.0147 33.6965 90.2387 33.7656 90.4115 33.9032C90.5843 34.041 90.7009 34.2429 90.7617 34.509H91.7563C91.7283 34.1354 91.6313 33.8181 91.4657 33.5565C91.2998 33.2949 91.071 33.0941 90.7793 32.9541C90.4873 32.8141 90.1385 32.744 89.7321 32.744C89.3398 32.744 88.9966 32.8152 88.7025 32.9576C88.4083 33.1002 88.1806 33.3008 88.0195 33.56C87.8585 33.8192 87.7777 34.1285 87.7777 34.488C87.7777 34.9504 87.9073 35.3218 88.1665 35.6018C88.4259 35.8821 88.8006 36.0666 89.2907 36.1552L89.9633 36.2533C90.1686 36.2813 90.3286 36.3514 90.443 36.4634C90.5574 36.5754 90.6147 36.7154 90.6147 36.8837C90.6147 37.1266 90.5342 37.3144 90.3731 37.4474C90.2118 37.5805 89.9913 37.6472 89.711 37.6472C89.4542 37.6472 89.2441 37.5901 89.0809 37.4757ZM92.6461 32.87V38.4738H93.6968V36.1762H95.4341V38.4738H96.4848V32.87H95.4341V35.1746H93.6968V32.87H92.6461ZM97.8572 37.8608C98.2218 38.3536 98.7586 38.5997 99.4684 38.5997C100.178 38.5997 100.715 38.3536 101.079 37.8608C101.444 37.368 101.626 36.6387 101.626 35.6717C101.626 34.7053 101.444 33.9757 101.079 33.4829C100.715 32.9904 100.178 32.744 99.4684 32.744C98.7586 32.744 98.2218 32.9904 97.8572 33.4829C97.4932 33.9757 97.3111 34.7053 97.3111 35.6717C97.3111 36.6387 97.4932 37.368 97.8572 37.8608ZM102.761 37.8608C103.125 38.3536 103.662 38.5997 104.372 38.5997C105.081 38.5997 105.618 38.3536 105.983 37.8608C106.347 37.368 106.529 36.6387 106.529 35.6717C106.529 34.7053 106.347 33.9757 105.983 33.4829C105.618 32.9904 105.081 32.744 104.372 32.744C103.662 32.744 103.125 32.9904 102.761 33.4829C102.397 33.9757 102.214 34.7053 102.214 35.6717C102.214 36.6387 102.397 37.368 102.761 37.8608ZM108.749 33.8647V38.4738H109.8V33.8647H111.411V32.87H107.138V33.8647H108.749ZM113.586 38.3337C113.724 38.4737 113.921 38.5436 114.178 38.5436C114.435 38.5436 114.632 38.4737 114.77 38.3337C114.908 38.1935 114.977 37.993 114.977 37.7313C114.977 37.4743 114.908 37.2748 114.77 37.1324C114.632 36.99 114.435 36.9185 114.178 36.9185C113.921 36.9185 113.724 36.99 113.586 37.1324C113.448 37.2748 113.379 37.4769 113.379 37.7383C113.379 37.9951 113.448 38.1935 113.586 38.3337ZM73.8669 43.9792L73.6007 41.2755H72.6271L73.2015 46.8792H74.5813L74.9106 43.4048H75.0157L75.3239 46.8792H76.7037L77.2781 41.2755H76.3674L76.1013 43.9792L75.9893 46.0104H75.8845L75.6042 42.6064H74.3922L74.0701 46.0104H73.9581L73.8669 43.9792ZM78.2376 41.2754V46.8791H81.712V45.9546H79.2883V44.5186H81.4318V43.629H79.2883V42.2002H81.7822V41.2754H78.2376ZM89.0809 45.881C88.9171 45.7666 88.8006 45.5997 88.7305 45.3802H87.7078C87.7358 45.721 87.8326 46.013 87.9985 46.2559C88.1643 46.4986 88.3918 46.6842 88.6814 46.8125C88.9707 46.941 89.3142 47.0053 89.711 47.0053C90.1033 47.0053 90.4441 46.9351 90.7339 46.7951C91.0233 46.6549 91.2475 46.4551 91.4062 46.1962C91.5649 45.937 91.6443 45.6277 91.6443 45.2679C91.6443 44.8103 91.5147 44.4391 91.2558 44.1543C90.9966 43.8695 90.6193 43.6874 90.1243 43.6082L89.4518 43.5098C89.251 43.4773 89.0923 43.4061 88.9755 43.2962C88.8587 43.1866 88.8006 43.0453 88.8006 42.8725C88.8006 42.6298 88.8846 42.4407 89.0526 42.3053C89.2206 42.1698 89.4494 42.1018 89.7393 42.1018C90.0147 42.1018 90.2387 42.1709 90.4115 42.3085C90.5843 42.4463 90.7009 42.6482 90.7617 42.9146H91.7563C91.7283 42.541 91.6313 42.2234 91.4657 41.9621C91.2998 41.7005 91.071 41.4997 90.7793 41.3597C90.4873 41.2194 90.1385 41.1495 89.7321 41.1495C89.3398 41.1495 88.9966 41.2207 88.7025 41.3631C88.4083 41.5055 88.1806 41.7063 88.0195 41.9655C87.8585 42.2247 87.7777 42.5341 87.7777 42.8935C87.7777 43.3559 87.9073 43.7271 88.1665 44.0074C88.4259 44.2874 88.8006 44.4719 89.2907 44.5605L89.9633 44.6589C90.1686 44.6866 90.3286 44.7567 90.443 44.8687C90.5574 44.981 90.6147 45.121 90.6147 45.289C90.6147 45.5319 90.5342 45.7199 90.3731 45.853C90.2118 45.9858 89.9913 46.0525 89.711 46.0525C89.4542 46.0525 89.2441 45.9954 89.0809 45.881ZM92.6461 41.2754V46.8791H93.6968V44.5818H95.4341V46.8791H96.4848V41.2754H95.4341V43.5799H93.6968V41.2754H92.6461ZM97.8572 46.2661C98.2218 46.7589 98.7586 47.0053 99.4684 47.0053C100.178 47.0053 100.715 46.7589 101.079 46.2661C101.444 45.7736 101.626 45.044 101.626 44.0773C101.626 43.1106 101.444 42.381 101.079 41.8885C100.715 41.3957 100.178 41.1493 99.4684 41.1493C98.7586 41.1493 98.2218 41.3957 97.8572 41.8885C97.4932 42.381 97.3111 43.1106 97.3111 44.0773C97.3111 45.044 97.4932 45.7736 97.8572 46.2661ZM102.908 46.2697C103.263 46.7601 103.785 47.0052 104.477 47.0052C104.855 47.0052 105.185 46.9257 105.468 46.7671C105.75 46.6084 105.972 46.3772 106.133 46.0735C106.295 45.7703 106.389 45.4012 106.417 44.9668H105.457C105.387 45.3217 105.272 45.5892 105.111 45.7689C104.95 45.9487 104.738 46.0385 104.477 46.0385C104.122 46.0385 103.858 45.8775 103.685 45.5553C103.512 45.2332 103.426 44.7404 103.426 44.0772C103.426 43.4143 103.517 42.9215 103.699 42.5993C103.881 42.2772 104.161 42.1159 104.54 42.1159C104.811 42.1159 105.034 42.2143 105.209 42.4103C105.384 42.6063 105.504 42.8935 105.569 43.2719H106.529C106.501 42.8188 106.404 42.4345 106.238 42.1196C106.072 41.8044 105.846 41.5639 105.559 41.398C105.272 41.2324 104.932 41.1495 104.54 41.1495C103.83 41.1495 103.292 41.3945 102.925 41.8849C102.559 42.3751 102.375 43.106 102.375 44.0772C102.375 45.0487 102.553 45.7796 102.908 46.2697ZM110.164 46.8791L108.7 44.5477V46.8791H107.65V41.2754H108.7V43.7973L110.318 41.2754H111.467L109.646 44.1263L111.376 46.8791H110.164ZM100.305 45.5552C100.125 45.8776 99.8466 46.0386 99.4684 46.0386C99.0903 46.0386 98.8111 45.8776 98.6314 45.5552C98.4514 45.233 98.3618 44.7405 98.3618 44.0773C98.3618 43.4141 98.4514 42.9216 98.6314 42.5994C98.8111 42.2773 99.0903 42.116 99.4684 42.116C99.8466 42.116 100.125 42.2773 100.305 42.5994C100.485 42.9216 100.575 43.4141 100.575 44.0773C100.575 44.7405 100.485 45.233 100.305 45.5552ZM99.4684 37.6331C99.8466 37.6331 100.125 37.472 100.305 37.1499C100.485 36.8277 100.575 36.3349 100.575 35.6717C100.575 35.0088 100.485 34.5163 100.305 34.1941C100.125 33.8717 99.8466 33.7107 99.4684 33.7107C99.0903 33.7107 98.8111 33.8717 98.6314 34.1941C98.4514 34.5163 98.3618 35.0088 98.3618 35.6717C98.3618 36.3349 98.4514 36.8277 98.6314 37.1499C98.8111 37.472 99.0903 37.6331 99.4684 37.6331ZM105.209 37.1499C105.029 37.472 104.75 37.6331 104.372 37.6331C103.994 37.6331 103.714 37.472 103.535 37.1499C103.355 36.8277 103.265 36.3349 103.265 35.6717C103.265 35.0088 103.355 34.5163 103.535 34.1941C103.714 33.8717 103.994 33.7107 104.372 33.7107C104.75 33.7107 105.029 33.8717 105.209 34.1941C105.389 34.5163 105.478 35.0088 105.478 35.6717C105.478 36.3349 105.389 36.8277 105.209 37.1499Z" fill="white"/>
</g>
<defs>
<clipPath id="clip0_276_1846">
<rect width="129.608" height="56.4379" fill="white" transform="translate(0 0.78125)"/>
</clipPath>
</defs>
</svg>
